<!DOCTYPE svg PUBLIC "-//W3C//DTD SVG 1.1//EN" "http://www.w3.org/Graphics/SVG/1.1/DTD/svg11.dtd">
<svg version="1.1" id="Livello_1" xmlns="http://www.w3.org/2000/svg" xmlns:xlink="http://www.w3.org/1999/xlink" x="0" y="0" width="64.896" height="74.938" viewBox="0 0 64.896 74.938" enable-background="new 0 0 64.896 74.938">
 <defs>
  <clipPath id="0">
   <use xlink:href="#D" overflow="visible"/>
  </clipPath>
  <clipPath id="1">
   <use xlink:href="#E" overflow="visible"/>
  </clipPath>
  <clipPath id="2">
   <use xlink:href="#F" overflow="visible"/>
  </clipPath>
  <clipPath id="3">
   <use xlink:href="#G" overflow="visible"/>
  </clipPath>
  <clipPath id="4">
   <use xlink:href="#H" overflow="visible"/>
  </clipPath>
  <clipPath id="5">
   <use xlink:href="#I" overflow="visible"/>
  </clipPath>
  <clipPath id="6">
   <use xlink:href="#J" overflow="visible"/>
  </clipPath>
  <clipPath id="7">
   <use xlink:href="#K" overflow="visible"/>
  </clipPath>
  <clipPath id="8">
   <use xlink:href="#L" overflow="visible"/>
  </clipPath>
  <clipPath id="9">
   <use xlink:href="#M" overflow="visible"/>
  </clipPath>
  <clipPath id="A">
   <use xlink:href="#N" overflow="visible"/>
  </clipPath>
  <clipPath id="B">
   <use xlink:href="#O" overflow="visible"/>
  </clipPath>
  <clipPath id="C">
   <use xlink:href="#P" overflow="visible"/>
  </clipPath>
  <rect id="D" x="14.188" y="21.089" width="36.854" height="32.759"/>
  <rect id="E" x="14.188" y="21.089" width="36.854" height="32.759"/>
  <rect id="F" x="14.188" y="21.089" width="36.854" height="32.759"/>
  <rect id="G" x="14.188" y="21.089" width="36.854" height="32.759"/>
  <rect id="H" x="14.188" y="21.089" width="36.854" height="32.759"/>
  <rect id="I" x="14.188" y="21.089" width="36.854" height="32.759"/>
  <rect id="J" x="14.188" y="21.089" width="36.854" height="32.759"/>
  <rect id="K" x="14.188" y="21.089" width="36.854" height="32.759"/>
  <rect id="L" x="14.188" y="21.089" width="36.854" height="32.759"/>
  <rect id="M" x="14.188" y="21.089" width="36.854" height="32.759"/>
  <rect id="N" x="14.188" y="21.089" width="36.854" height="32.759"/>
  <rect id="O" x="14.188" y="21.089" width="36.854" height="32.759"/>
  <rect id="P" x="14.188" y="21.089" width="36.854" height="32.759"/>
 </defs>
 <polygon fill="#f5fcfd" points="32.448,0 0,18.734 0,56.203 32.448,74.937 64.897,56.203 64.897,18.734 "/>
 <polygon fill="#ebf6f8" points="64.726,18.634 0,56.203 32.448,74.937 64.897,56.203 64.897,18.733 "/>
 <g>
  <g>
   <path clip-path="url(#0)" fill="#604117" d="M49.874 21.088L15.357 21.088c-.646 0-1.169.523-1.169 1.169l0 30.421c0 .646.521 1.17 1.169 1.17l34.517 0c.646 0 1.169-.522 1.169-1.17L51.043 22.257C51.043 21.612 50.519 21.088 49.874 21.088M42.563 23.622c.859 0 1.558.698 1.558 1.562 0 .861-.697 1.559-1.558 1.559-.862 0-1.562-.697-1.562-1.559C41.002 24.321 41.701 23.622 42.563 23.622M37.978 23.622c.861 0 1.562.698 1.562 1.562 0 .861-.7 1.559-1.562 1.559-.861 0-1.559-.697-1.559-1.559C36.421 24.321 37.117 23.622 37.978 23.622M48.703 51.506L16.526 51.506 16.526 29.281l32.177 0L48.703 51.506zM47.144 26.742c-.862 0-1.562-.697-1.562-1.559 0-.863.697-1.562 1.562-1.562.861 0 1.56.698 1.56 1.562C48.703 26.045 48.006 26.742 47.144 26.742"/>
  </g>
  <g>
   <path clip-path="url(#1)" fill="#36bed6" d="M19.179 36.701c0-.897.153-1.564.462-2.002.308-.438.749-.656 1.325-.656.616 0 1.067.215 1.354.648.288.432.433 1.102.433 2.01 0 .904-.155 1.575-.464 2.015-.311.439-.753.658-1.33.658-.61 0-1.061-.229-1.349-.691C19.323 38.222 19.179 37.561 19.179 36.701M20.131 36.701c0 .596.064 1.057.195 1.38.128.326.342.487.64.487.288 0 .5-.147.633-.446.134-.298.203-.771.203-1.421 0-.59-.065-1.046-.192-1.37-.126-.322-.344-.481-.65-.481-.293 0-.504.15-.633.454C20.195 35.607 20.131 36.073 20.131 36.701"/>
  </g>
  <g>
   <polygon clip-path="url(#2)" fill="#36bed6" points="24.328,38.466 25.346,38.466 25.346,35.574 25.457,35.075
			25.103,35.507 24.453,35.955 24.05,35.406 25.719,34.059 26.254,34.059 26.254,38.466 27.25,38.466 27.25,39.273 24.328,39.273
			"/>
  </g>
  <g>
   <path clip-path="url(#3)" fill="#36bed6" d="M28.583 36.701c0-.897.152-1.564.462-2.002.307-.438.748-.656 1.324-.656.616 0 1.066.215 1.354.648.288.432.432 1.102.432 2.01 0 .904-.154 1.575-.465 2.015-.31.439-.753.658-1.33.658-.609 0-1.06-.229-1.348-.691C28.726 38.222 28.583 37.561 28.583 36.701M29.535 36.701c0 .596.063 1.057.193 1.38.129.326.343.487.641.487.288 0 .5-.147.633-.446.135-.298.203-.771.203-1.421 0-.59-.064-1.046-.191-1.37-.127-.322-.345-.481-.651-.481-.292 0-.504.15-.633.454C29.599 35.607 29.535 36.073 29.535 36.701"/>
  </g>
  <g>
   <polygon clip-path="url(#4)" fill="#36bed6" points="33.73,38.466 34.75,38.466 34.75,35.574 34.857,35.075
			34.508,35.507 33.854,35.955 33.453,35.406 35.122,34.059 35.658,34.059 35.658,38.466 36.652,38.466 36.652,39.273 33.73,39.273
					"/>
  </g>
  <g>
   <path clip-path="url(#5)" fill="#36bed6" d="M37.985 36.701c0-.897.154-1.564.461-2.002.31-.438.75-.656 1.326-.656.616 0 1.067.215 1.354.648.289.432.433 1.102.433 2.01 0 .904-.155 1.575-.466 2.015-.309.439-.752.658-1.328.658-.61 0-1.06-.229-1.347-.691C38.131 38.222 37.985 37.561 37.985 36.701M38.937 36.701c0 .596.064 1.057.194 1.38.129.326.343.487.641.487.288 0 .499-.147.635-.446.135-.298.201-.771.201-1.421 0-.59-.063-1.046-.191-1.37-.125-.322-.345-.481-.65-.481-.293 0-.505.15-.634.454C39.003 35.607 38.937 36.073 38.937 36.701"/>
  </g>
  <g>
   <polygon clip-path="url(#6)" fill="#36bed6" points="43.135,38.466 44.152,38.466 44.152,35.574 44.262,35.075
			43.912,35.507 43.26,35.955 42.855,35.406 44.525,34.059 45.06,34.059 45.06,38.466 46.056,38.466 46.056,39.273 43.135,39.273
			"/>
  </g>
  <g>
   <path clip-path="url(#7)" fill="#fec459" d="M19.179 45.49c0-.898.153-1.565.462-2.003.308-.438.749-.655 1.325-.655.616 0 1.067.215 1.354.647.288.432.433 1.103.433 2.011 0 .905-.155 1.574-.464 2.015-.311.439-.753.658-1.33.658-.61 0-1.061-.229-1.349-.691C19.323 47.009 19.179 46.35 19.179 45.49M20.131 45.49c0 .597.064 1.057.195 1.382.128.324.342.486.64.486.288 0 .5-.148.633-.446.134-.299.203-.771.203-1.422 0-.59-.065-1.046-.192-1.37-.126-.321-.344-.48-.65-.48-.293 0-.504.148-.633.452C20.195 44.395 20.131 44.862 20.131 45.49"/>
  </g>
  <g>
   <path clip-path="url(#8)" fill="#fec459" d="M23.881 45.49c0-.898.154-1.565.462-2.003.307-.438.749-.655 1.325-.655.616 0 1.066.215 1.354.647s.434 1.103.434 2.011c0 .905-.156 1.574-.465 2.015-.31.439-.753.658-1.329.658-.611 0-1.061-.229-1.349-.691C24.024 47.009 23.881 46.35 23.881 45.49M24.834 45.49c0 .597.064 1.057.194 1.382.129.324.343.486.641.486.288 0 .5-.148.633-.446.135-.299.202-.771.202-1.422 0-.59-.064-1.046-.19-1.37-.127-.321-.344-.48-.65-.48-.293 0-.505.148-.634.452C24.897 44.395 24.834 44.862 24.834 45.49"/>
  </g>
  <g>
   <polygon clip-path="url(#9)" fill="#fec459" points="29.029,47.255 30.048,47.255 30.048,44.364 30.157,43.865
			29.804,44.296 29.154,44.743 28.751,44.195 30.42,42.847 30.956,42.847 30.956,47.255 31.952,47.255 31.952,48.061 29.029,48.061
					"/>
  </g>
  <g>
   <path clip-path="url(#A)" fill="#fec459" d="M33.285 45.49c0-.898.152-1.565.462-2.003.307-.438.748-.655 1.323-.655.616 0 1.067.215 1.355.647.288.432.433 1.103.433 2.011 0 .905-.155 1.574-.465 2.015-.311.439-.754.658-1.33.658-.609 0-1.06-.229-1.348-.691C33.428 47.009 33.285 46.35 33.285 45.49M34.236 45.49c0 .597.063 1.057.193 1.382.129.324.344.486.641.486.288 0 .5-.148.635-.446.135-.299.203-.771.203-1.422 0-.59-.065-1.046-.192-1.37-.126-.321-.343-.48-.651-.48-.293 0-.505.148-.634.452C34.301 44.395 34.236 44.862 34.236 45.49"/>
  </g>
  <g>
   <polygon clip-path="url(#B)" fill="#fec459" points="38.433,47.255 39.452,47.255 39.452,44.364 39.56,43.865
			39.21,44.296 38.557,44.743 38.154,44.195 39.824,42.847 40.358,42.847 40.358,47.255 41.354,47.255 41.354,48.061 38.433,48.061
					"/>
  </g>
  <g>
   <path clip-path="url(#C)" fill="#fec459" d="M42.687 45.49c0-.898.154-1.565.462-2.003.309-.438.75-.655 1.325-.655.616 0 1.067.215 1.355.647.288.432.432 1.103.432 2.011 0 .905-.154 1.574-.465 2.015-.311.439-.753.658-1.329.658-.61 0-1.06-.229-1.347-.691C42.832 47.009 42.687 46.35 42.687 45.49M43.639 45.49c0 .597.065 1.057.195 1.382.129.324.343.486.64.486.288 0 .5-.148.634-.446.136-.299.202-.771.202-1.422 0-.59-.062-1.046-.19-1.37-.127-.321-.345-.48-.651-.48-.292 0-.504.148-.633.452C43.705 44.395 43.639 44.862 43.639 45.49"/>
  </g>
 </g>
</svg>
