<svg viewBox="0 0 65 75" xmlns="http://www.w3.org/2000/svg"><g fill="none" fill-rule="evenodd"><path d="m32.448 0l-32.448 18.734v37.466l32.448 18.737 32.449-18.737v-37.466l-32.449-18.734" fill="#fffcf7"/><path d="m64.726 18.634l-64.726 37.566 32.448 18.737 32.449-18.737v-37.467l-.171-.099" fill="#fbf7ef"/><path d="m32.16 15.867c-.354 0-.64.286-.64.639v2.789c0 .354.286.639.64.639.354 0 .637-.286.637-.639v-2.789c-.001-.353-.284-.639-.637-.639m-2.15 1.052c-.188.02-.324.188-.306.377l.156 1.493c.021.189.188.326.378.309.188-.021.326-.189.307-.379l-.156-1.493c-.021-.192-.19-.328-.379-.307m-1.72.601c-.04-.186-.223-.305-.407-.266-.184.039-.305.224-.265.407l.312 1.47c.04.187.222.305.406.266.187-.041.306-.224.266-.408l-.312-1.469m-2.24 2.154c.061.181.253.279.436.222.181-.06.277-.252.22-.434l-.464-1.43c-.059-.179-.253-.278-.434-.22-.181.058-.279.252-.222.433l.464 1.429m-1.8-.915c-.078-.173-.279-.251-.453-.174-.174.076-.252.279-.174.452l.61 1.373c.077.174.279.251.454.175.174-.077.251-.28.174-.455l-.611-1.371m-1.905.929c-.095-.165-.305-.222-.469-.126-.165.095-.222.305-.126.469l.751 1.3c.096.164.306.224.471.127.163-.096.221-.306.125-.471l-.752-1.299m-1.796 1.122c-.11-.153-.325-.188-.479-.076-.153.112-.188.326-.075.479l.883 1.216c.11.151.326.188.479.075.152-.11.188-.325.076-.479l-.884-1.215m-1.173 2.88c.127.141.344.152.485.024.142-.127.152-.345.025-.484l-1.01-1.116c-.127-.14-.344-.152-.485-.024-.143.126-.151.345-.024.484l1.01 1.116m-1.357 1.41c.142.127.357.116.484-.024.127-.14.115-.357-.024-.485l-1.117-1c-.142-.126-.357-.114-.484.025-.127.139-.116.357.024.485l1.117 1m-1.209 1.546c.153.109.369.078.479-.077.111-.153.078-.368-.077-.479l-1.214-.883c-.152-.11-.369-.078-.479.075-.111.153-.078.369.075.479l1.216.885m-2.339.913l1.301.751c.165.094.375.039.471-.126.095-.166.039-.375-.127-.47l-1.301-.751c-.164-.096-.374-.039-.469.125-.096.166-.038.377.125.471m-.929 1.903l1.372.61c.174.076.377 0 .454-.175.076-.174 0-.377-.176-.454l-1.372-.61c-.173-.077-.377 0-.453.174-.077.175.001.377.175.455m-.726 1.988l1.43.464c.181.061.375-.039.435-.221.058-.18-.041-.374-.222-.432l-1.43-.465c-.179-.06-.373.04-.433.222-.059.18.042.375.22.432m-.512 2.057l1.469.312c.188.039.369-.08.409-.264.039-.188-.08-.369-.266-.408l-1.469-.312c-.186-.041-.369.076-.407.265-.04.183.078.366.264.407m-.295 2.096l1.493.155c.188.021.357-.116.379-.305.02-.188-.117-.356-.307-.379l-1.493-.156c-.188-.021-.357.117-.377.306-.02.188.116.359.305.379m1.564 4.07c.188-.021.325-.188.307-.377-.021-.188-.188-.325-.379-.307l-1.493.158c-.188.018-.325.188-.306.375.02.19.188.328.377.307l1.494-.156m.609 1.526c-.041-.187-.223-.303-.409-.264l-1.469.311c-.187.039-.305.225-.265.408.038.188.221.305.406.264l1.47-.311c.187-.039.306-.221.267-.408m.497 1.85c-.06-.181-.253-.279-.435-.222l-1.43.467c-.179.056-.278.253-.22.433.058.18.253.279.433.221l1.43-.465c.181-.059.28-.254.222-.434m.689 1.802c-.079-.174-.281-.254-.454-.174l-1.372.608c-.174.078-.252.281-.174.455.076.174.279.25.454.174l1.372-.61c.172-.076.251-.279.174-.453m.873 1.715c-.097-.164-.306-.221-.471-.127l-1.301.752c-.163.094-.221.305-.125.469.095.164.305.223.469.127l1.302-.752c.164-.096.221-.305.126-.469m1.048 1.613c-.112-.154-.326-.189-.479-.076l-1.217.881c-.152.113-.188.328-.074.481.11.152.327.188.479.076l1.214-.885c.154-.108.189-.324.077-.477m1.211 1.496c-.128-.143-.345-.153-.484-.024l-1.117 1c-.142.127-.152.346-.024.484.126.143.344.153.484.024l1.116-1.01c.14-.123.152-.342.025-.481v.007m1.361 1.354c-.144-.127-.358-.113-.485.027l-1 1.114c-.127.142-.117.357.024.484.143.127.357.115.485-.025l1.01-1.114c.128-.141.115-.357-.025-.486h-.009m1.014 1.29l-.882 1.215c-.112.152-.078.367.075.479.154.112.369.08.479-.076l.884-1.213c.111-.154.076-.369-.075-.48-.154-.113-.369-.08-.481.075m1.625 1.1l-.751 1.302c-.096.163-.039.372.126.469.164.098.375.041.469-.125l.752-1.301c.094-.164.037-.375-.127-.472-.163-.093-.375-.039-.469.127m2.184.75c-.175-.078-.376 0-.454.174l-.61 1.371c-.078.175 0 .379.174.453.174.078.376 0 .453-.174l.611-1.371c.077-.173-.001-.376-.174-.453m1.796.688c-.183-.062-.375.039-.436.219l-.464 1.43c-.059.183.041.375.221.435.182.061.375-.041.435-.221l.465-1.431c.057-.18-.041-.373-.221-.432m1.858.502c-.188-.041-.369.078-.406.264l-.312 1.471c-.04.188.079.367.265.406.187.039.368-.078.407-.264l.312-1.469c.038-.187-.08-.369-.266-.408m1.901.295c-.188-.021-.357.115-.378.307l-.156 1.494c-.021.188.116.355.306.377.189.021.358-.117.379-.305l.156-1.496c.018-.186-.119-.358-.307-.377m3.84 0c-.188.021-.326.188-.308.379l.156 1.494c.021.188.188.324.378.305.188-.021.327-.188.309-.377l-.158-1.494c-.022-.188-.189-.327-.377-.307m2.31-.035c-.04-.188-.224-.305-.408-.266-.187.039-.306.221-.265.408l.312 1.469c.039.188.222.305.407.266.188-.041.306-.221.267-.408l-.313-1.469m1.88-.54c-.061-.18-.253-.279-.436-.221-.179.061-.277.252-.22.434l.465 1.431c.06.18.253.276.434.221.183-.062.278-.252.22-.435l-.463-1.43m1.82-.74c-.077-.172-.279-.252-.455-.172-.172.076-.249.277-.172.453l.61 1.369c.076.176.28.254.453.176.174-.078.251-.278.174-.453l-.61-1.373m1.729-.92c-.094-.164-.305-.223-.468-.127-.164.097-.222.308-.127.472l.752 1.299c.095.166.306.221.47.127.164-.097.222-.303.125-.469l-.752-1.302m1.631-1.1c-.11-.152-.326-.188-.479-.076-.152.113-.188.328-.074.482l.884 1.213c.109.151.324.188.479.076.154-.111.188-.326.077-.48l-.887-1.215m1.494-1.26c-.126-.142-.345-.152-.483-.025-.142.129-.151.344-.023.486l1.01 1.115c.126.141.345.149.483.022.144-.127.152-.344.025-.481l-1.01-1.117h-.002m1.356-1.411c-.142-.125-.356-.115-.484.026-.126.14-.115.357.026.482l1.115 1.01c.141.127.357.117.483-.024.129-.144.116-.357-.024-.484l-1.116-1.01m1.21-1.549c-.154-.109-.37-.078-.48.076-.111.151-.077.368.075.479l1.217.883c.15.111.367.078.479-.074.113-.153.08-.368-.074-.481l-1.217-.883m1.037-1.66c-.163-.094-.374-.037-.47.127-.094.164-.038.373.127.469l1.301.75c.165.098.374.039.471-.125.094-.164.038-.375-.127-.469l-1.302-.752m2.23-1.15l-1.37-.611c-.175-.073-.379.003-.453.177-.077.174 0 .377.175.453l1.371.61c.174.076.375-.002.453-.174.077-.174-.001-.377-.176-.455m.723-1.99l-1.428-.465c-.183-.059-.376.041-.436.222-.058.18.04.375.222.434l1.43.463c.181.062.373-.039.433-.219.06-.183-.039-.376-.221-.435m.52-2.06l-1.472-.312c-.187-.037-.368.079-.406.266-.039.188.079.369.267.408l1.469.312c.185.039.368-.078.408-.264.037-.188-.081-.369-.266-.41m.29-2.09l-1.495-.156c-.188-.02-.358.117-.378.309-.02.188.116.355.307.375l1.495.156c.188.021.355-.115.377-.305.019-.19-.118-.358-.306-.379m-1.564-4.07c-.188.021-.325.189-.307.377.021.189.188.326.378.307l1.495-.157c.188-.021.324-.189.306-.377-.021-.189-.188-.326-.38-.306l-1.492.156m-.606-1.527c.04.186.222.305.408.266l1.469-.312c.188-.039.305-.223.267-.405-.041-.188-.224-.306-.408-.267l-1.469.312c-.187.039-.307.221-.267.406m-.498-1.858c.062.182.253.279.436.22l1.428-.464c.181-.058.28-.252.221-.432-.06-.183-.252-.28-.435-.222l-1.429.463c-.179.061-.281.256-.221.435m-.689-1.796c.076.173.278.252.453.174l1.372-.61c.173-.077.251-.28.176-.454-.08-.174-.28-.252-.456-.174l-1.372.609c-.172.08-.252.283-.173.455m-.873-1.709c.097.165.306.221.471.126l1.301-.752c.164-.095.221-.306.127-.47-.098-.166-.306-.222-.471-.126l-1.301.75c-.165.098-.221.307-.127.472m-1.05-1.619c.111.153.326.188.48.076l1.214-.883c.152-.111.188-.327.074-.479-.109-.153-.324-.188-.479-.075l-1.215.882c-.151.111-.186.327-.074.479m-1.21-1.491c.13.141.345.153.484.024l1.116-1c.143-.128.151-.346.024-.486-.128-.143-.343-.151-.483-.024l-1.117 1c-.138.128-.151.345-.024.485m-1.36-1.362c.142.127.357.115.483-.025l1.01-1.116c.128-.142.116-.358-.024-.484-.142-.127-.357-.116-.484.024l-1.01 1.116c-.127.139-.118.358.024.485m-1.01-1.288l.883-1.215c.11-.154.076-.368-.076-.479-.152-.111-.367-.078-.479.076l-.882 1.215c-.111.154-.079.37.074.479.152.111.369.079.48-.076m-1.631-1.099l.752-1.3c.096-.165.038-.375-.125-.469-.164-.096-.375-.04-.47.126l-.752 1.3c-.094.166-.037.376.127.47.166.095.375.039.468-.127m-1.729-.921l.61-1.373c.076-.173-.001-.376-.174-.454-.175-.077-.377 0-.453.175l-.612 1.372c-.073.175.002.378.174.453.176.078.379.003.455-.173m-2.251-.514c.183.057.375-.039.436-.222l.463-1.43c.061-.18-.039-.375-.22-.433-.183-.06-.374.039-.434.221l-.465 1.43c-.057.181.04.377.22.434m-1.857-.499c.187.039.369-.079.408-.266l.312-1.47c.041-.185-.078-.368-.265-.407-.188-.039-.368.077-.408.266l-.312 1.469c-.039.187.079.37.265.408m-1.902-.296c.189.018.357-.117.378-.309l.157-1.492c.021-.188-.117-.357-.308-.377-.188-.021-.357.115-.378.307l-.156 1.492c-.018.188.119.36.307.379m-19.363 18.28c0-.352-.284-.639-.638-.639h-2.79c-.353 0-.639.287-.639.639 0 .354.286.64.639.64h2.79c.354-.001.638-.286.638-.64m17.443 17.437c-.354 0-.64.287-.64.641v2.789c0 .353.286.639.64.639.354 0 .637-.286.637-.639v-2.789c-.001-.354-.284-.641-.637-.641m20.87-18.08h-2.79c-.354 0-.641.287-.641.641 0 .353.286.638.641.638h2.79c.351 0 .637-.285.637-.638 0-.354-.287-.641-.637-.641" fill="#776050"/><path d="m38.645 44.18l-5.609-6.479c.021-.039.035-.078.049-.117l-.415-.474c.019.062.023.129.021.193-.012.153-.082.303-.207.411-.125.107-.281.154-.437.146-.023-.002-.048-.006-.07-.01-.117-.031-.228-.097-.311-.193-.107-.127-.152-.287-.142-.438.013-.153.084-.307.211-.413.128-.107.288-.152.442-.142h.004c.021.004.043.008.062.015.022.006.045.014.064.021l-.385-.439c-.042.005-.082.013-.122.023l-1.039-1.199c-.06.131-.145.252-.259.353-.114.1-.247.166-.384.205l1.039 1.198c-.024.056-.044.111-.06.17l1.104 1.267c.058-.004.117-.012.175-.025l5.62 6.482c-.394.322.996 2.127 1.562 2.688.545.539 2.177 1.164 2.49 1.343-.138-.367-.517-2.039-.974-2.656-.467-.641-2.055-2.274-2.429-1.93" fill="#fec459"/><path d="m32.11 38.28c.408 0 .761-.236.928-.576l-.003-.002c.062-.129.1-.268.104-.408 0-.012.001-.021.001-.033v-.008c0-.055-.008-.106-.017-.16v-.002c-.004-.03-.012-.062-.021-.096l4.064-3.434c.319.393 1.48-.416 1.816-.779.325-.35.521-1.595.604-1.823-.262.042-1.498.027-1.896.289-.416.271-1.405 1.28-1.07 1.663l-4.066 3.437c-.06-.029-.12-.05-.187-.064h-.008c-.073-.018-.146-.029-.223-.031-.113-.006-.226.002-.335.033v-.002c-.289.088-.524.297-.646.566-.011.021-.019.043-.026.062-.002.008-.005.016-.007.021-.01.024-.017.053-.022.08 0 0-.001.004-.002.008-.008.026-.015.057-.019.086-.022.151-.012.307.035.457l-1.182.998c.129.061.249.146.349.262.098.117.162.25.2.389l1.21-1.022c.052.021.101.043.153.055.092.02.178.034.266.034m-.443-.623c-.107-.127-.152-.287-.142-.438.013-.153.084-.307.212-.413.128-.107.287-.152.441-.142h.004c.021.004.043.008.062.015.111.03.216.092.296.186.108.127.157.287.146.441-.013.153-.082.301-.207.411-.125.105-.281.154-.437.146-.023-.002-.048-.006-.07-.012-.113-.03-.222-.095-.305-.194" fill="#36bed6"/></g></svg>