<?xml version="1.0" encoding="UTF-8" standalone="no"?>
<svg width="1327px" height="1319px" viewBox="0 0 1327 1319" version="1.1" xmlns="http://www.w3.org/2000/svg" xmlns:xlink="http://www.w3.org/1999/xlink" xmlns:sketch="http://www.bohemiancoding.com/sketch/ns">
    <!-- Generator: Sketch 3.3.2 (12043) - http://www.bohemiancoding.com/sketch -->
    <title>Stroke 1</title>
    <desc>Created with Sketch.</desc>
    <defs></defs>
    <g id="Page-1" stroke="none" stroke-width="1" fill="none" fill-rule="evenodd" sketch:type="MSPage">
        <g id="f-copy" sketch:type="MSArtboardGroup" transform="translate(-58.000000, -109.000000)" stroke="#FFFFFF" opacity="0.0900000036">
            <path d="M1003.06976,976.608772 C1213.44846,976.608772 1384,883.907385 1384,769.568414 C1384,655.219069 1213.44846,562.517682 1003.06976,562.517682 C792.691058,562.517682 622.13952,655.219069 622.13952,769.568414 C622.13952,883.907385 792.691058,976.608772 1003.06976,976.608772 L1003.06976,976.608772 Z M1039.96175,913.54237 C1245.7458,869.800427 1393.29301,743.667623 1369.52117,631.807742 C1345.74933,519.968606 1159.65067,464.754387 953.866617,508.49633 C748.09293,552.238274 600.545729,678.38145 624.307197,790.230958 C648.079036,902.080467 834.177688,957.294687 1039.96175,913.54237 L1039.96175,913.54237 Z M1062.93497,844.179701 C1255.12178,758.604403 1373.22385,604.537747 1326.72771,500.073646 C1280.22119,395.609545 1086.71718,380.309719 894.519992,465.885018 C702.322805,551.470689 584.22074,705.526972 630.727253,809.991073 C677.244137,914.455173 870.748153,929.765372 1062.93497,844.179701 L1062.93497,844.179701 Z M1070.98337,771.559984 C1241.18228,647.885525 1324.67412,472.627314 1257.47615,380.12301 C1190.26781,287.608332 997.800958,312.876384 827.612429,436.550843 C657.403156,560.214929 573.911313,735.47314 641.119654,827.987817 C708.327995,920.492122 900.784473,895.234443 1070.98337,771.559984 L1070.98337,771.559984 Z M1063.7647,698.846912 C1204.52884,542.487876 1249.77001,353.693208 1164.79502,277.183705 C1079.8304,200.663829 896.8225,265.400246 756.058363,421.759282 C615.283855,578.118318 570.053056,766.912986 655.017675,843.422489 C739.992665,919.942365 922.990192,855.205949 1063.7647,698.846912 L1063.7647,698.846912 Z M1041.57972,629.224924 C1146.76908,447.006588 1151.76821,252.932184 1052.75,195.767885 C953.731785,138.593212 788.179387,239.955857 682.990035,422.174193 C577.811056,604.392528 572.811917,798.466933 671.830132,855.631232 C770.848347,912.816277 936.390374,811.44326 1041.57972,629.224924 L1041.57972,629.224924 Z M1005.41375,565.733239 C1070.41293,365.632259 1034.96261,174.763039 926.215777,139.433406 C817.479319,104.093401 676.621838,237.673849 611.612288,437.785202 C546.602738,637.886181 582.063435,828.755402 690.810265,864.085034 C799.557095,899.425039 940.404205,765.844591 1005.41375,565.733239 L1005.41375,565.733239 Z M956.832911,511.151758 C978.820825,301.902 904.45604,122.577666 790.741186,110.628242 C677.026332,98.6788187 567.024532,258.626831 545.036618,467.886961 C523.048704,677.136718 597.413489,856.461053 711.128342,868.410477 C824.843196,880.3599 934.844997,720.411888 956.832911,511.151758 L956.832911,511.151758 Z M897.963382,467.876588 C875.975468,258.616458 765.952924,98.6788187 652.238071,110.638615 C538.533589,122.588038 464.179175,301.922746 486.177461,511.16213 C508.175747,720.42226 618.19829,880.370273 731.902773,868.410477 C845.617626,856.45068 919.961668,677.115973 897.963382,467.876588 L897.963382,467.876588 Z M831.387712,437.774829 C766.367791,237.663476 625.510309,104.093401 516.763479,139.433406 C408.027021,174.773411 372.576695,365.642632 437.596617,565.753984 C502.616538,765.854964 643.484392,899.435412 752.231221,864.085034 C860.96768,828.745029 896.407634,637.875809 831.387712,437.774829 L831.387712,437.774829 Z M760.009965,422.174193 C654.810242,239.955857 489.257843,138.593212 390.239628,195.778257 C291.221413,252.95293 296.230924,447.027334 401.430647,629.245669 C506.63037,811.453632 672.182768,912.816277 771.200983,855.631232 C870.219198,798.45656 865.209688,604.382155 760.009965,422.174193 L760.009965,422.174193 Z M686.952009,421.759282 C546.167128,265.400246 363.15923,200.684575 278.18424,277.204451 C193.229992,353.724327 238.471163,542.508621 379.245671,698.867658 C520.030551,855.216321 703.038449,919.942365 788.01344,843.422489 C872.978059,766.902613 827.726517,578.118318 686.952009,421.759282 L686.952009,421.759282 Z M615.397943,436.550843 C445.18867,312.876384 252.72182,287.629078 185.513479,380.143755 C118.31551,472.658432 201.817725,647.906271 372.026998,771.58073 C542.246642,895.244816 734.713492,920.492122 801.911461,827.977445 C869.119802,735.462767 785.607216,560.204556 615.397943,436.550843 L615.397943,436.550843 Z M548.480008,465.885018 C356.282821,380.320092 162.768434,395.640664 116.272293,500.104764 C69.7657806,604.568865 187.888589,758.635521 380.085776,844.200447 C572.282962,929.775745 765.79735,914.455173 812.293491,809.9807 C858.800003,705.516599 740.687567,551.460316 548.480008,465.885018 L548.480008,465.885018 Z M489.133383,508.506703 C283.338954,464.764759 97.2403015,519.989352 73.478834,631.849233 C49.7069948,743.698741 197.274939,869.841918 403.058997,913.573489 C608.853427,957.305059 794.952079,902.080467 818.723918,790.220586 C842.485386,678.371077 694.917442,552.238274 489.133383,508.506703 L489.133383,508.506703 Z M439.93024,562.528055 C229.541166,562.5488 59,655.250187 59,769.609905 C59.0103717,883.959249 229.572281,976.650263 439.961355,976.63989 C650.350429,976.629518 820.901966,883.907385 820.891595,769.558041 C820.881223,655.208696 650.319314,562.517682 439.93024,562.528055 L439.93024,562.528055 Z M403.048625,625.60483 C197.254196,669.367519 49.7069948,795.510695 73.4892056,907.370576 C97.2610448,1019.22008 283.370069,1074.42393 489.164498,1030.66124 C694.948557,986.898553 842.495757,860.755377 818.723918,748.895496 C794.941707,637.045988 608.832684,581.84214 403.048625,625.60483 L403.048625,625.60483 Z M380.075404,694.977872 C187.878217,780.563543 69.7865239,934.640571 116.293037,1039.10467 C162.809921,1143.56877 356.324308,1158.8686 548.511123,1073.27255 C740.70831,987.676511 858.810375,833.599482 812.293491,729.135382 C765.786978,624.671281 572.262219,609.381827 380.075404,694.977872 L380.075404,694.977872 Z M372.026998,767.597588 C201.828097,891.28242 118.336253,1066.551 185.554966,1159.06568 C252.773679,1251.56999 445.240529,1226.30193 615.43943,1102.6171 C785.638331,978.921898 869.119802,803.653314 801.911461,711.138637 C734.692748,618.634332 542.225899,643.912757 372.026998,767.597588 L372.026998,767.597588 Z M379.256043,840.31066 C238.491906,996.690442 193.261107,1185.48511 278.236098,1262.00499 C363.22146,1338.51449 546.229358,1273.7677 686.993495,1117.38792 C827.757632,961.018509 872.988431,772.213468 788.003068,695.703965 C703.028078,619.194462 520.02018,683.941251 379.256043,840.31066 L379.256043,840.31066 Z M401.441019,909.943021 C296.262039,1092.17173 291.273272,1286.24613 390.301858,1343.41043 C489.330445,1400.58511 654.872472,1299.20172 760.051451,1116.96263 C865.240802,934.733926 870.219198,740.659522 771.200983,683.495222 C672.172397,626.32055 506.619998,727.70394 401.441019,909.943021 L401.441019,909.943021 Z M588.446235,1400.643 C563.829145,1407.13406 539.627949,1407.14882 516.836081,1399.74491 C408.089251,1364.41528 372.618182,1173.54606 437.61736,973.424334 C492.782666,803.579476 602.581603,681.657151 701.028717,670.250984 C710.824932,668.766135 720.705061,668.502983 730.613369,669.54246 C844.367863,681.466037 918.768946,860.557962 896.794118,1069.55724 C874.819289,1278.54617 764.768768,1438.29724 651.014274,1426.37367 C628.464025,1424.00998 607.459861,1415.07658 588.446241,1400.643 Z M543.723575,1069.58832 C565.739904,1278.57725 675.811176,1438.3076 789.565671,1426.36331 C903.320165,1414.40865 977.700497,1235.30637 955.673793,1026.31744 C933.657463,817.32852 823.586191,657.587804 709.831697,669.54246 C596.077203,681.486756 521.707245,860.5994 543.723575,1069.58832 L543.723575,1069.58832 Z M610.332828,1099.64071 C675.38579,1299.49271 816.313125,1432.88968 925.097863,1397.58511 C1033.8826,1362.28055 1069.32453,1171.64834 1004.27157,971.796341 C939.208234,771.954698 798.2809,638.547374 689.496162,673.851937 C580.721799,709.1565 545.269491,899.788708 610.332828,1099.64071 L610.332828,1099.64071 Z M681.735457,1115.22113 C786.992603,1297.19294 952.613087,1398.42422 1051.66582,1341.30293 C1150.71855,1284.192 1145.69692,1090.35876 1040.45015,908.386943 C935.193004,726.415127 769.562144,625.183851 670.519787,682.294783 C571.45668,739.416074 576.488687,933.238952 681.735457,1115.22113 L681.735457,1115.22113 Z M754.829256,1115.62514 C895.673588,1271.77117 1078.76603,1336.41333 1163.76027,1259.98227 C1248.75451,1183.5512 1203.47681,995.001218 1062.63248,838.855187 C921.777775,682.698796 738.695707,618.066998 653.70147,694.498062 C568.707232,770.929125 613.984924,959.47911 754.829256,1115.62514 L754.829256,1115.62514 Z M826.408265,1100.85275 C996.697622,1224.35656 1189.24194,1249.56079 1256.46333,1157.15566 C1323.68473,1064.76088 1240.13265,889.729808 1069.8433,766.225994 C899.564316,642.72218 707.019998,617.517954 639.798604,709.923089 C572.577209,802.328224 656.129283,977.359296 826.408265,1100.85275 L826.408265,1100.85275 Z M893.349527,1071.54623 C1085.62409,1156.98991 1279.21631,1141.67883 1325.72866,1037.33976 C1372.24101,933.000688 1254.06665,779.144066 1061.78171,693.690035 C869.50715,608.236004 675.925304,623.547079 629.40258,727.88615 C582.890231,832.235581 701.064591,986.092203 893.349527,1071.54623 L893.349527,1071.54623 Z M952.71684,1028.97979 C1158.59338,1072.64432 1344.75691,1017.48094 1368.52666,905.755676 C1392.29641,794.051128 1244.66665,668.081796 1038.80048,624.417262 C832.923937,580.742368 646.760412,635.916107 622.990661,747.631014 C599.220911,859.345922 746.840296,985.315254 952.71684,1028.97979 L952.71684,1028.97979 Z" id="Stroke-1" sketch:type="MSShapeGroup"></path>
        </g>
    </g>
</svg>