<svg xmlns="http://www.w3.org/2000/svg" viewBox="322.537 226.953 162 34.38" enable-background="new 322.537 226.953 162 34.38"><g fill="#614118"><path d="m331.61 247.19v9.43l8.17 4.71 8.17-4.71v-9.43l-8.17-4.72z"/><path d="m340.57 231.67v9.43l8.17 4.71 8.17-4.71v-9.43l-8.17-4.72z"/></g><g fill="#ffc200"><path d="m349.51 247.17v9.43l8.17 4.72 8.17-4.72v-9.43l-8.17-4.71z"/><path d="m322.54 231.6v9.43l8.16 4.72 8.17-4.72v-9.43l-8.17-4.71z"/></g><g fill="#614118"><path d="m372.25 230.85c.899-.154 1.965-.282 3.199-.385 1.234-.102 2.544-.154 3.931-.154 1.773 0 3.314.148 4.625.444 1.31.296 2.415.817 3.314 1.563 1.542 1.286 2.312 3.114 2.312 5.48 0 .798-.122 1.538-.366 2.219-.244.682-.565 1.3-.963 1.852-.399.553-.867 1.029-1.407 1.428-.54.399-1.105.714-1.696.946v.116c.899.359 1.612.956 2.139 1.79.527.833.944 1.879 1.253 3.137.179.719.359 1.449.54 2.194.179.744.353 1.443.52 2.097.167.654.328 1.238.482 1.751.154.513.295.898.424 1.154h-5.779c-.205-.359-.448-1.073-.729-2.139-.281-1.066-.588-2.383-.92-3.951-.307-1.619-.748-2.711-1.323-3.276-.575-.565-1.399-.848-2.473-.848h-1.457v10.214h-5.627v-25.632m5.627 11.331h1.877c1.353 0 2.4-.355 3.141-1.065.741-.71 1.111-1.646 1.111-2.808 0-2.453-1.316-3.706-3.945-3.758-.562 0-1.016.02-1.36.058-.344.038-.619.084-.823.135v7.438h-.001"/><path d="m399.15 256.77c-1.311 0-2.512-.219-3.604-.655-1.093-.437-2.037-1.073-2.833-1.908-.797-.834-1.42-1.856-1.869-3.064-.45-1.208-.675-2.569-.675-4.085 0-1.567.231-2.961.694-4.182.463-1.22 1.104-2.255 1.927-3.103.822-.848 1.798-1.497 2.929-1.946 1.131-.449 2.364-.675 3.7-.675 1.336 0 2.544.231 3.623.694 1.079.463 2 1.118 2.775 1.966.771.848 1.368 1.869 1.793 3.064.424 1.195.636 2.512.636 3.951 0 1.799-.27 3.328-.809 4.586-.54 1.259-1.24 2.287-2.101 3.083-.861.797-1.831 1.375-2.91 1.734-1.079.359-2.158.54-3.238.54h-.038m.155-4.086c.513 0 .969-.147 1.368-.443.398-.295.732-.706 1-1.234.27-.526.475-1.137.617-1.831.141-.694.212-1.439.212-2.235 0-.694-.058-1.381-.173-2.062-.116-.681-.302-1.291-.559-1.831-.257-.54-.591-.976-1-1.311-.412-.334-.912-.501-1.503-.501-.617 0-1.143.167-1.58.501-.437.334-.784.771-1.041 1.311-.257.54-.443 1.15-.559 1.831-.116.681-.173 1.368-.173 2.062 0 .823.071 1.58.212 2.274.141.694.353 1.298.636 1.812.283.514.629.919 1.041 1.214.411.295.899.443 1.465.443h.037"/><path d="m426.7 250.41c0 1.182.013 2.268.039 3.257.025.989.064 1.895.116 2.717h-4.856l-.27-2.467h-.116c-.206.308-.463.63-.771.963-.309.334-.681.643-1.118.925-.437.283-.951.514-1.542.694-.591.179-1.259.27-2 .27-1.876 0-3.367-.642-4.471-1.927-1.105-1.285-1.657-3.327-1.657-6.129v-11.177h5.627v10.329c0 1.363.206 2.422.617 3.18.411.758 1.079 1.137 2 1.137.694 0 1.246-.193 1.657-.578s.706-.796.887-1.234c.154-.333.231-.783.231-1.349v-11.485h5.627v12.874"/><path d="m436.49 232.62v5.05h4.047v4.086h-4.047v7.362c0 1.156.173 1.972.52 2.447.347.476.906.713 1.677.713.359 0 .649-.013.867-.039.218-.025.468-.064.751-.116l.039 4.278c-.36.128-.855.237-1.484.327-.63.09-1.329.135-2.1.135-.9 0-1.709-.135-2.429-.405-.72-.27-1.31-.636-1.773-1.098-.54-.54-.944-1.246-1.214-2.12-.27-.873-.405-2-.405-3.392v-8.094h-2.428v-4.086h2.428v-3.468l5.551-1.579"/><path d="m444.99 235.5c-.879 0-1.584-.27-2.114-.809-.53-.54-.795-1.22-.795-2.043 0-.848.271-1.542.815-2.081.543-.54 1.267-.809 2.172-.809.879 0 1.584.27 2.114.809.53.54.808 1.234.834 2.081 0 .823-.271 1.503-.814 2.043-.544.54-1.268.809-2.173.809h-.039m-2.755 21.16v-18.848h5.666v18.848h-5.666"/><path d="m484.42 256.23c-.437.206-1.073.385-1.908.54-.835.154-1.741.231-2.717.231-1.439 0-2.73-.218-3.873-.655-1.144-.437-2.127-1.066-2.949-1.889-.823-.822-1.452-1.824-1.888-3.01-.437-1.181-.655-2.518-.655-4.01 0-1.413.225-2.723.675-3.931.449-1.208 1.104-2.261 1.966-3.16.861-.899 1.921-1.606 3.18-2.12 1.259-.514 2.698-.771 4.317-.771.745 0 1.465.064 2.158.193.694.129 1.297.296 1.812.501l-.848 4.201c-.308-.128-.694-.244-1.156-.347-.462-.102-1.028-.154-1.696-.154-1.465 0-2.615.501-3.45 1.503-.835 1-1.253 2.287-1.253 3.854 0 1.722.45 3.045 1.349 3.97.899.925 2.03 1.387 3.392 1.387 1.156 0 2.133-.179 2.929-.539l.615 4.201"/><path d="m457.8 237.15c0-1 .289-1.85.867-2.544.578-.694 1.613-1.04 3.103-1.04.433 0 .844.022 1.233.067v-4.471c-.461-.044-.923-.067-1.387-.067-1.542 0-2.897.206-4.066.617-1.17.411-2.146.97-2.929 1.677-.784.707-1.381 1.536-1.792 2.486-.411.951-.617 1.979-.617 3.083v.848h-2.505v4.086h2.505v14.762h5.627v-14.762h5.165v14.762h5.627v-18.848h-10.831v-.656"/></g></svg>