<svg viewBox="0 0 65 75" xmlns="http://www.w3.org/2000/svg"><g fill="none" fill-rule="evenodd"><path d="m32.449 0l-32.449 18.734v37.469l32.449 18.734 32.449-18.734v-37.469l-32.449-18.734" fill="#f5fcfd"/><path d="m64.723 18.634l-64.723 37.569 32.445 18.734 32.45-18.734v-37.47l-.172-.099" fill="#ebf6f8"/><g transform="translate(12 17)"><path d="m8.895 40.25l.604-1h7c4.517-.225 8.5-1.137 8.5-1.944-.62-.605-3.207-.683-4.861-.562-2.151.01-3.196-.32-3.389-1.1-.312-1.261 2.229-2.713 3.336-3.281l.106-.055h13.04c5.492 0 6.273-.332 6.273-1.558 0-.981-1.59-1.242-3.833-1.498-2.288-.262-4.653-.528-4.653-2.438v-.51h1v.51c0 .94 1.562 1.19 3.766 1.442 2.214.252 4.723.539 4.723 2.492 0 2.445-2.361 2.558-7.273 2.558h-12.794c-1.412.737-2.715 1.748-2.715 2.104.009 0 .322.371 2.376.332.708-.051 4.441-.262 5.535.758.239.224.366.502.366.806 0 2.233-6.627 2.805-9.478 2.946h-7.626l.002-.002m25.499-14.5h-6.415l4-4h6.414l-3.999 4m-4-1h3.586l2-2h-3.586l-2 2" fill="#604117"/><path d="m33.19.25c-4.04 0-7.312 3.273-7.312 7.312 0 1.298.337 2.517.93 3.572l6.382 12.432 6.334-12.346c.622-1.076.979-2.326.979-3.658-.001-4.04-3.274-7.312-7.313-7.312m3.729 6.857l-1.152-1.152c.004-.021.024-.035.024-.059v-1.298c0-.183-.146-.326-.326-.326h-.648c-.182 0-.326.145-.326.326v.078l-.886-.884c-.229-.229-.6-.229-.828 0l-3.312 3.313c-.229.229-.229.6 0 .828.229.229.6.229.829 0l2.896-2.899 2.9 2.899c.115.112.265.17.414.17.148 0 .3-.058.415-.17.228-.226.228-.598 0-.826m-3.729-1.151l-2.439 2.438c-.021.021-.055.028-.076.052v1.757c0 .719.582 1.299 1.3 1.299h2.521c.718 0 1.299-.58 1.299-1.299v-1.702c-.055-.038-.113-.06-.159-.105l-2.446-2.44m0 7.456c-3.229 0-5.85-2.619-5.85-5.85 0-3.231 2.619-5.852 5.85-5.852 3.231 0 5.852 2.62 5.852 5.852-.002 3.231-2.621 5.85-5.852 5.85" fill="#36bed6"/><path d="m7.811 16.935c-4.04 0-7.312 3.271-7.312 7.312 0 1.297.337 2.517.93 3.574l6.382 12.43 6.334-12.348c.622-1.074.979-2.324.979-3.656.001-4.04-3.273-7.312-7.313-7.312m0 13.161c-3.229 0-5.85-2.619-5.85-5.851 0-3.23 2.62-5.85 5.85-5.85 3.23 0 5.852 2.619 5.852 5.85-.001 3.232-2.62 5.851-5.852 5.851m3.78-8.337l-3.01-1.605c-.281-.129-.508-.069-.646-.006l-3.88 1.604c-.226.104-.383.34-.383.578v3.799c0 .232.159.476.365.568 2.322 1.234 2.902 1.539 3.062 1.619.091.059.179.088.27.088.104 0 .19-.039.21-.055.022-.009.051-.015 3.996-1.646.229-.104.385-.342.385-.578v-3.795c0-.233-.157-.475-.364-.571m-.947.455l-3.242 1.35-.492-.271 3.234-1.346.5.267m-5.116.321l-.496-.271 3.21-1.328.5.266-3.214 1.333m.886 2.163v-.709l.538.297v3.01l-2.437-1.297v-3.048l.668.365v.812l1.231.572m1.386 2.65v-3.03l3.31-1.375v3.039l-3.31 1.367" fill="#604117"/><path d="m20.5 8.25c-4.04 0-7.312 3.273-7.312 7.312 0 1.298.338 2.518.933 3.572l6.38 12.434 6.334-12.347c.622-1.076.978-2.326.978-3.658-.002-4.04-3.274-7.313-7.313-7.313m0 13.162c-3.23 0-5.852-2.619-5.852-5.85 0-3.231 2.619-5.852 5.852-5.852 3.229 0 5.85 2.62 5.85 5.852-.001 3.23-2.622 5.85-5.85 5.85m3.751-4.511h-.149v-1.492-.298c0-.138-.093-.247-.218-.283l-.678-1.806c-.048-.162-.133-.299-.297-.299h-2.39c-.007 0-.014.004-.021.004-.008 0-.016-.004-.022-.004h-3.239c-.188 0-.341.133-.341.299v3.879h-.147c-.083 0-.149.064-.149.146v.301c0 .082.066.146.149.146h.488.106c0-.222.07-.427.189-.596.188-.271.5-.448.854-.448.354 0 .666.177.854.448.117.169.188.374.188.596h1.045.043 1.044c0-.222.07-.427.188-.596.188-.271.501-.448.854-.448.354 0 .666.177.854.448.118.169.188.374.188.596h.15.446c.082 0 .147-.064.147-.146v-.301c.011-.081-.054-.146-.136-.146m-3.133-2.275v-1.152c0-.142.111-.252.252-.252h1.224c.141 0 .212.112.253.252l.46 1.152h-2.189m1.49 3.472c.331 0 .6-.269.6-.6 0-.331-.269-.6-.6-.6-.331 0-.6.269-.6.6 0 .331.269.6.6.6m-4.218 0c.331 0 .6-.269.6-.6 0-.331-.269-.6-.6-.6-.331 0-.6.269-.6.6 0 .331.269.6.6.6" fill="#fec459"/></g></g></svg>