<svg xmlns="http://www.w3.org/2000/svg" viewBox="0 0 64.896 74.938" enable-background="new 0 0 64.896 74.938"><path fill="#fffcf7" d="M32.449 0 0 18.734 0 56.2 32.449 74.937 64.898 56.2 64.898 18.734z"/><path fill="#fbf7ef" d="M64.723 18.634 0 56.2 32.445 74.937 64.895 56.2 64.895 18.733z"/><g fill="#776050"><path d="m42.1 53.803h.016.644 6.073c.013.029.025.057.032.08.035.114.048.232.052.319v.006c0 .373-.303.675-.676.675h-5.45c-.373 0-.675-.302-.675-.675v-.282c-.004-.046-.009-.09-.016-.123"/><path d="m42.12 54.21c0 .066.01.132.028.192h6.744c.018-.061.028-.126.028-.192v-.006c-.004-.087-.017-.205-.052-.319-.007-.023-.02-.051-.032-.08h-6.073-.216-.428-.016c.007.033.012.077.016.123v.282"/><path d="m39.777 43.45h.238.021c.01.026.026.055.049.081l8.505 9.887c.105.122.192.268.242.38h-6.074-.643-.016c-.003-.015-.005-.03-.008-.042-.027-.095-.067-.216-.107-.334l-3.424-9.848c-.002-.008-.017-.053-.028-.124h1.245"/><path d="m38.485 25.802l.781-.955.781.955.781.955h-.813v16.617c.002.023.008.051.021.082h-.021-.238-1.245c-.008-.038-.013-.083-.014-.134v-16.565h-.814l.781-.955"/></g><g fill="#36bed6"><path d="m39.511 53.803h-6.763c-.01.085-.019.172-.02.257v1.705c0 .373.303.674.676.674h5.449c.374 0 .676-.301.676-.674v-1.741c-.001-.075-.008-.148-.018-.221"/><path d="m32.73 55.37h6.8v-1.35c-.003-.074-.009-.147-.019-.221h-6.761c-.011.085-.019.171-.02.257v1.314"/><path d="m36.879 15.935h.813l-.78-.955-.782-.955-.781.955-.781.955h.813v27.309c0 .086-.005.156-.011.211h1.52c-.007-.055-.011-.125-.011-.211v-27.309"/><path d="m39.484 53.623l-2.58-10.07c-.006-.026-.011-.058-.015-.099h-1.519c-.005.041-.011.073-.016.099l-.019.076-2.43 9.479-.126.492c-.013.065-.022.133-.031.202h6.762c-.005-.062-.015-.122-.026-.18"/></g><g fill="#fec459"><path d="m30.16 53.803h-.016-.643-6.074c-.013.029-.025.057-.032.08-.036.114-.048.232-.052.319v8.483c0 .373.303.676.676.676h5.45c.373 0 .675-.303.675-.676v-8.76c.004-.045.009-.089.016-.122"/><path d="m23.344 54.2v4.474h6.801v-4.75c.003-.046.008-.09.015-.123h-.015-.644-6.073c-.013.029-.025.057-.032.08-.036.114-.048.232-.052.319"/><path d="m32.482 43.45h-.238-.02c-.011.026-.026.055-.05.081l-8.504 9.887c-.105.122-.193.268-.242.38h6.073.644.015c.003-.015.006-.03.009-.042.027-.095.067-.216.106-.334l3.424-9.848c.003-.008.017-.053.029-.124h-1.246"/><path d="m33.774 7.194l-.781-.955-.781.955-.782.954h.813v35.23c-.001.023-.008.051-.02.083h.02.238 1.246c.007-.039.013-.084.014-.135v-35.17h.813l-.78-.954"/></g><g fill="#604117"><path d="m19.829 53.8l-.001.003h-6.02c-.147.204-.187.448-.186.792v3.838c0 .372.303.675.676.675h5.45c.373 0 .675-.303.675-.675v-4.065c0-.221.027-.437.099-.567h-.695z"/><path d="m13.624 56.24h6.801v-1.872c0-.219.026-.435.098-.564h-.695-6.02c-.147.204-.187.448-.186.792v1.644"/><path d="m29.367 43.45h-.26-.043c-.035.056-.077.081-.077.081l-14.07 9.402c0 0-.718.467-.947.691-.06.06-.117.111-.16.173h6.615l.002-.003h.096c.083-.149.193-.285.286-.388l.175-.178h.001l9.542-9.698c.001-.002.026-.03.049-.08h-1.211"/><path d="m30.637 19.1l-.782-.955-.78.955-.781.954h.812v23.25c0 .069-.02.116-.043.152h.043.261 1.208c.016-.034.029-.077.029-.134v-23.267h.813l-.78-.954"/></g></svg>